PathFileType	4	(X/Y/Z)	Walk1.trc
DataRate	CameraRate	NumFrames	NumMarkers	Units	OrigDataRate	OrigDataStartFrame	OrigNumFrames
200.000000	200.000000	8	59	mm	200.000000	523	610
Frame#	Times		LFHD		RFHD		CLAV		STRN		LASI		RASI		RACR1		RUA1		RElbow		RElbowM		RFA1		RWRR		RWRU		RCAR		LACR1		LUA1		LElbow		LFA1		LWRR		LWRU		LCAR		RTH2		RTB1		RTB2		LTH1		LTH3		LTH2		LMFC		LTB1		LTB2		LTB4		LMT1		LToe		LLFC		LMT5		RTH3		LTB3		RTB4		RTB3		RMFC		LTH4		RTH4		RToe		RTH1		RMMAL		RLFC		RBHD		RMT1		RCAL		RBack		LMMAL		LLMAL		RPSI		C7		T10		LPSI		LCAL		LBHD		LElbowM
			X1	Y1	Z1	X2	Y2	Z2	X3	Y3	Z3	X4	Y4	Z4	X5	Y5	Z5	X6	Y6	Z6	X7	Y7	Z7	X8	Y8	Z8	X9	Y9	Z9	X10	Y10	Z10	X11	Y11	Z11	X12	Y12	Z12	X13	Y13	Z13	X14	Y14	Z14	X15	Y15	Z15	X16	Y16	Z16	X17	Y17	Z17	X18	Y18	Z18	X19	Y19	Z19	X20	Y20	Z20	X21	Y21	Z21	X22	Y22	Z22	X23	Y23	Z23	X24	Y24	Z24	X25	Y25	Z25	X26	Y26	Z26	X27	Y27	Z27	X28	Y28	Z28	X29	Y29	Z29	X30	Y30	Z30	X31	Y31	Z31	X32	Y32	Z32	X33	Y33	Z33	X34	Y34	Z34	X35	Y35	Z35	X36	Y36	Z36	X37	Y37	Z37	X38	Y38	Z38	X39	Y39	Z39	X40	Y40	Z40	X41	Y41	Z41	X42	Y42	Z42	X43	Y43	Z43	X44	Y44	Z44	X45	Y45	Z45	X46	Y46	Z46	X47	Y47	Z47	X48	Y48	Z48	X49	Y49	Z49	X50	Y50	Z50	X51	Y51	Z51	X52	Y52	Z52	X53	Y53	Z53	X54	Y54	Z54	X55	Y55	Z55	X56	Y56	Z56	X57	Y57	Z57	X58	Y58	Z58	X59	Y59	Z59

523	2.615	1200.1	1649.6	18.405	1204.4	1634.6	-79.743	1217.7	1382.5	4.2281	1289.6	1226.6	18.27	1180.2	960.99	-143.55	1174.6	968.19	212.79	1099.9	1476.6	168.54	1094	1318.8	301.29	1125.1	1180.3	364.57	1082.1	1094	275.4	1199.1	1049.4	374.4	1251.2	944.76	300.46	1249.8	946.98	382.62	1307.3	881.33	345.94	1100.1	1428.3	-180.18	1039.1	1259	-252.2	992.79	1099	-288.34	984.32	958.03	-294.98	1015.7	828.63	-235.35	960.69	821.92	-286.18	997.06	739.92	-264.74	1078.8	664.22	230.3	937.36	344.88	154.36	855.37	301.41	203.77	1176.3	754.91	-171.62	1240	597.63	-148.21	1259.5	700.65	-144.57	1274.3	513.09	8.4456	1336.3	404.57	-86.457	1306.6	310.49	-120.86	1338.6	322.07	-67.673	1414	36.09	-43.914	1458.9	38.158	-84	1248.8	514.3	-147.39	1344	24.367	-117.23	1011.2	584.35	235.5	1332.1	236.08	-52.146	871.26	289.69	145.84	805.3	235.09	136.6	971.88	476.58	72.144	1206.7	676.77	-159.31	1022.5	669.04	243.58	762.69	24.969	133.56	1031.6	754.91	252.65	681.39	168.85	77.015	962.8	479.29	228.01	1060.7	1543.7	-85.008	722.42	37.57	97.842	592.21	206.79	114.31	959.31	1350.6	126.85	1281.4	84.38	34.9	1249.4	73.581	-48.902	916.98	1007.8	66.13	1022.7	1458.8	-2.5081	962.64	1144.2	31.1	932.67	1010.2	-17.942	1205.7	44.632	11.359	1070.1	1572.8	63.193	927.09	1064.3	-188.21
524	2.62	1206.6	1651	17.321	1210.9	1635.9	-80.805	1224.4	1383.9	3.1378	1296.5	1227.9	17.248	1186.7	962.22	-144.89	1181.9	969.27	210.97	1106.8	1478	167.52	1100.8	1320.2	300.32	1131.1	1181.5	363.33	1087.7	1095.5	274.19	1204.2	1049.9	373.41	1255.4	944.71	299.6	1254.1	947.08	381.76	1310.9	880.67	345.07	1106.9	1429.6	-181.1	1046.3	1260.1	-253.15	1000.5	1099.9	-289.3	992.73	959.05	-296.12	1025.1	829.72	-236.87	969.9	822.82	-287.42	1006.9	741.03	-266.44	1088.8	664.99	230.17	948.08	345.36	155.34	865.27	303.33	204.71	1181.5	755.21	-172.51	1244	597.54	-148.77	1264.2	700.39	-145.62	1278.3	513.13	8.0291	1339.1	403.92	-86.777	1308.8	310	-121.04	1340.8	321.44	-67.872	1414.2	35.946	-43.751	1459.4	37.393	-83.912	1252.2	514.24	-147.78	1344	24.524	-117.24	1022.2	584.3	235.87	1333.7	235.52	-52.189	881.09	291.25	146.83	814.29	237.65	137.63	984.5	475.82	72.844	1211.2	676.85	-159.9	1032.5	669.16	243.52	765.39	24.967	133.94	1040.5	755.19	252.09	689.38	173.4	77.998	974.8	479.41	228.72	1067.4	1544.8	-86.041	726.19	40.002	98.026	601.35	213.61	115.16	966.24	1352.1	126.2	1281.7	84.284	35.06	1249.8	73.648	-48.786	923.77	1008.6	65.279	1029.5	1460.1	-3.4414	969.36	1145.5	30.168	939.35	1011.6	-19.014	1205.8	44.783	11.4	1076.7	1574.1	62.179	935.29	1064.9	-188.98
525	2.625	1213	1652.3	16.319	1217.4	1637.2	-81.789	1231.1	1385.3	2.0964	1303.3	1229.3	16.246	1193	963.44	-146.23	1189.1	970.41	209.2	1113.7	1479.3	166.54	1107.5	1321.5	299.39	1137.2	1182.6	362.13	1093.2	1097	273.05	1209.3	1050.4	372.46	1259.6	944.68	298.78	1258.4	947.2	380.93	1314.4	880	344.22	1113.7	1431	-181.99	1053.5	1261.3	-254.1	1008.3	1101	-290.29	1001.2	960.13	-297.27	1034.6	830.89	-238.38	979.17	823.78	-288.66	1016.8	742.22	-268.15	1098.9	665.82	230.04	959.11	345.92	156.23	875.53	305.27	205.59	1186.5	755.51	-173.35	1247.9	597.45	-149.29	1268.8	700.13	-146.6	1282.2	513.15	7.6428	1341.9	403.29	-87.068	1310.9	309.53	-121.21	1342.9	320.82	-68.055	1414.4	35.856	-43.61	1459.8	36.697	-83.86	1255.6	514.17	-148.13	1344.1	24.673	-117.24	1033.5	584.3	236.22	1335.2	234.98	-52.221	891.26	292.87	147.74	823.65	240.26	138.58	997.33	475.13	73.495	1215.5	676.94	-160.47	1042.7	669.31	243.45	768.77	25.118	134.45	1049.5	755.49	251.54	697.76	177.96	78.949	987.04	479.55	229.39	1074	1546	-87.018	730.61	42.662	98.341	610.86	220.29	116.04	973.13	1353.6	125.53	1281.9	84.196	35.213	1250.2	73.711	-48.676	930.48	1009.5	64.373	1036.3	1461.3	-4.3572	976.04	1146.8	29.193	945.98	1013.1	-20.122	1205.9	44.916	11.446	1083.3	1575.3	61.226	943.5	1065.6	-189.78
526	2.63	1219.5	1653.6	15.397	1223.8	1638.5	-82.696	1237.7	1386.7	1.1048	1310	1230.6	15.261	1199.3	964.63	-147.57	1196.2	971.61	207.47	1120.5	1480.7	165.61	1114.2	1322.9	298.5	1143.2	1183.7	360.96	1098.8	1098.5	271.98	1214.4	1050.9	371.54	1263.7	944.65	297.98	1262.7	947.34	380.14	1317.8	879.33	343.4	1120.5	1432.4	-182.84	1060.8	1262.5	-255.06	1016.1	1102.1	-291.29	1009.7	961.26	-298.43	1044.1	832.12	-239.87	988.49	824.79	-289.89	1026.8	743.47	-269.85	1109.2	666.71	229.9	970.42	346.56	157.02	886.14	307.22	206.39	1191.5	755.84	-174.15	1251.6	597.38	-149.78	1273.4	699.87	-147.52	1286	513.14	7.2812	1344.5	402.67	-87.331	1312.9	309.07	-121.36	1344.9	320.23	-68.22	1414.6	35.807	-43.493	1460.2	36.062	-83.843	1258.8	514.11	-148.47	1344.1	24.811	-117.24	1044.9	584.34	236.54	1336.6	234.45	-52.244	901.75	294.56	148.55	833.38	242.9	139.44	1010.4	474.54	74.091	1219.8	677.05	-161.01	1052.9	669.5	243.38	772.87	25.463	135.1	1058.6	755.82	251.01	706.53	182.48	79.851	999.47	479.74	230.02	1080.6	1547.2	-87.94	735.73	45.525	98.79	620.7	226.78	116.91	979.95	1355	124.83	1282.2	84.115	35.359	1250.5	73.769	-48.576	937.13	1010.4	63.423	1043.1	1462.6	-5.2536	982.67	1148.1	28.182	952.57	1014.6	-21.256	1206	45.035	11.497	1089.9	1576.5	60.336	951.71	1066.3	-190.61
527	2.635	1225.9	1655	14.554	1230.2	1639.9	-83.527	1244.3	1388.1	0.16344	1316.7	1232	14.293	1205.6	965.8	-148.88	1203.1	972.86	205.82	1127.2	1482	164.72	1120.8	1324.3	297.65	1149.2	1184.9	359.84	1104.3	1100	270.97	1219.4	1051.4	370.66	1267.8	944.62	297.23	1266.9	947.48	379.39	1321.3	878.66	342.6	1127.2	1433.9	-183.66	1068.1	1263.8	-256.01	1023.9	1103.2	-292.31	1018.2	962.42	-299.59	1053.7	833.41	-241.35	997.88	825.82	-291.11	1036.8	744.77	-271.54	1119.5	667.68	229.76	981.99	347.29	157.7	897.08	309.17	207.09	1196.5	756.19	-174.92	1255.3	597.31	-150.23	1277.8	699.62	-148.36	1289.6	513.1	6.9407	1347	402.07	-87.566	1314.8	308.62	-121.5	1346.7	319.65	-68.37	1414.7	35.788	-43.4	1460.5	35.483	-83.856	1261.9	514.06	-148.78	1344.1	24.935	-117.23	1056.4	584.46	236.84	1337.9	233.95	-52.259	912.54	296.3	149.25	843.45	245.56	140.2	1023.6	474.09	74.627	1224	677.18	-161.52	1063.2	669.73	243.29	777.77	26.04	135.88	1067.7	756.17	250.48	715.7	186.95	80.694	1012.1	479.97	230.6	1087.1	1548.4	-88.806	741.61	48.558	99.373	630.87	233.03	117.76	986.72	1356.5	124.11	1282.4	84.043	35.497	1250.8	73.821	-48.484	943.71	1011.4	62.437	1049.8	1464	-6.1279	989.24	1149.5	27.143	959.1	1016.1	-22.411	1206.1	45.143	11.55	1096.4	1577.8	59.507	959.93	1067.1	-191.48
528	2.64	1232.2	1656.3	13.789	1236.6	1641.2	-84.285	1250.8	1389.5	-0.72772	1323.3	1233.3	13.342	1211.8	966.94	-150.17	1210	974.15	204.23	1133.9	1483.3	163.87	1127.3	1325.6	296.83	1155.2	1186	358.75	1109.9	1101.4	270.02	1224.4	1051.9	369.81	1271.9	944.59	296.51	1271.2	947.62	378.67	1324.6	878	341.84	1134	1435.4	-184.45	1075.4	1265.1	-256.97	1031.8	1104.3	-293.35	1026.8	963.61	-300.77	1063.3	834.73	-242.8	1007.3	826.88	-292.33	1047	746.1	-273.21	1129.9	668.74	229.6	993.82	348.13	158.26	908.34	311.12	207.7	1201.4	756.57	-175.65	1258.9	597.27	-150.66	1282.3	699.38	-149.14	1293	513.03	6.6194	1349.3	401.48	-87.776	1316.7	308.18	-121.63	1348.5	319.09	-68.505	1414.8	35.788	-43.329	1460.8	34.957	-83.897	1265	514.01	-149.07	1344.2	25.043	-117.23	1068	584.64	237.1	1339.2	233.46	-52.266	923.63	298.1	149.84	853.87	248.24	140.84	1036.9	473.78	75.102	1228.2	677.33	-162.01	1073.6	670.02	243.19	783.52	26.881	136.79	1076.9	756.57	249.96	725.26	191.33	81.468	1024.9	480.28	231.12	1093.7	1549.6	-89.615	748.29	51.725	100.08	641.33	239	118.57	993.43	1357.8	123.37	1282.7	83.977	35.626	1251	73.869	-48.4	950.24	1012.4	61.424	1056.5	1465.3	-6.9769	995.77	1150.8	26.084	965.58	1017.6	-23.576	1206.1	45.243	11.604	1102.9	1579	58.738	968.15	1067.9	-192.4
529	2.645	1238.6	1657.7	13.097	1243	1642.6	-84.971	1257.3	1390.9	-1.5692	1329.9	1234.6	12.409	1218	968.05	-151.44	1216.7	975.48	202.72	1140.6	1484.5	163.08	1133.8	1327	296.06	1161.2	1187.1	357.71	1115.4	1102.8	269.13	1229.4	1052.4	369.01	1275.9	944.55	295.85	1275.4	947.75	378	1328	877.33	341.12	1140.8	1436.9	-185.19	1082.8	1266.4	-257.93	1039.7	1105.5	-294.41	1035.4	964.82	-301.94	1072.9	836.08	-244.23	1016.8	827.94	-293.54	1057.2	747.46	-274.86	1140.3	669.87	229.43	1005.9	349.06	158.7	919.89	313.07	208.22	1206.2	756.96	-176.35	1262.4	597.23	-151.06	1286.6	699.14	-149.85	1296.3	512.94	6.3163	1351.6	400.9	-87.963	1318.4	307.76	-121.75	1350.2	318.55	-68.626	1414.9	35.8	-43.279	1461.1	34.478	-83.961	1267.9	513.96	-149.36	1344.2	25.136	-117.24	1079.8	584.92	237.33	1340.4	232.99	-52.269	934.99	299.95	150.32	864.62	250.91	141.37	1050.3	473.64	75.519	1232.3	677.5	-162.5	1084.1	670.39	243.08	790.18	28.004	137.83	1086.2	757.01	249.44	735.22	195.58	82.17	1037.8	480.66	231.59	1100.2	1550.8	-90.369	755.78	54.981	100.91	652.09	244.64	119.31	1000.1	1359.2	122.61	1282.9	83.919	35.745	1251.3	73.912	-48.325	956.7	1013.5	60.391	1063.1	1466.6	-7.7971	1002.3	1152.1	25.013	972.02	1019.1	-24.743	1206.2	45.339	11.657	1109.3	1580.2	58.028	976.37	1068.6	-193.37
530	2.65	1244.9	1659	12.475	1249.4	1643.9	-85.589	1263.8	1392.2	-2.362	1336.5	1235.9	11.494	1224.1	969.14	-152.67	1223.3	976.84	201.31	1147.2	1485.8	162.33	1140.2	1328.3	295.32	1167.1	1188.1	356.72	1120.9	1104.2	268.28	1234.3	1052.8	368.24	1279.9	944.49	295.23	1279.6	947.87	377.37	1331.3	876.66	340.46	1147.5	1438.5	-185.91	1090.1	1267.7	-258.89	1047.6	1106.6	-295.49	1044.1	966.02	-303.13	1082.5	837.45	-245.62	1026.4	829.01	-294.76	1067.5	748.84	-276.48	1150.8	671.1	229.24	1018.1	350.11	159.04	931.73	315	208.64	1211.1	757.37	-177.02	1265.9	597.22	-151.45	1290.9	698.91	-150.51	1299.3	512.83	6.0312	1353.7	400.34	-88.13	1320.1	307.36	-121.86	1351.8	318.03	-68.733	1415	35.816	-43.249	1461.3	34.042	-84.043	1270.8	513.92	-149.63	1344.2	25.214	-117.24	1091.5	585.3	237.52	1341.6	232.54	-52.268	946.64	301.84	150.69	875.7	253.56	141.79	1063.7	473.69	75.879	1236.4	677.69	-162.96	1094.6	670.84	242.96	797.77	29.413	138.96	1095.4	757.51	248.92	745.58	199.66	82.795	1050.8	481.15	232.01	1106.7	1552.1	-91.067	764.12	58.281	101.85	663.12	249.91	119.97	1006.7	1360.5	121.84	1283.1	83.867	35.853	1251.5	73.953	-48.257	963.12	1014.6	59.343	1069.7	1468	-8.585	1008.7	1153.5	23.939	978.41	1020.6	-25.903	1206.3	45.433	11.709	1115.8	1581.4	57.374	984.59	1069.4	-194.38
